<svg xmlns="http://www.w3.org/2000/svg" viewBox="0 0 1024 1024">
  <title>Grovy app icon</title>
  <rect x="64" y="64" width="896" height="896" rx="224" fill="#F7F3EC" />
  <rect
    x="64"
    y="64"
    width="896"
    height="896"
    rx="224"
    fill="none"
    stroke="#E4DACD"
    stroke-width="16"
  />
  <circle cx="512" cy="512" r="228" fill="#EFE4D3" />
  <g fill="#547A4E">
    <g transform="translate(444 512) rotate(-28)">
      <path d="M0 -176 C62 -170 112 -118 118 -52 C126 34 82 118 0 180 C-82 118 -126 34 -118 -52 C-112 -118 -62 -170 0 -176 Z" />
    </g>
    <g transform="translate(580 512) rotate(28)">
      <path d="M0 -176 C62 -170 112 -118 118 -52 C126 34 82 118 0 180 C-82 118 -126 34 -118 -52 C-112 -118 -62 -170 0 -176 Z" />
    </g>
  </g>
</svg>
